<svg width="91" height="77" viewBox="0 0 91 77" fill="none" xmlns="http://www.w3.org/2000/svg">
<path d="M34.4671 71.7493C31.7853 71.7493 32.2413 70.7367 31.3163 68.1833L23.431 42.2326L84.1294 6.22266" fill="url(#paint0_radial_487_462)"/>
<path d="M34.4671 71.7501C36.5364 71.7501 37.4503 70.8037 38.6056 69.6808L49.6417 58.9496L35.8756 50.6484" fill="url(#paint1_radial_487_462)"/>
<path d="M35.8742 50.65L69.2307 75.2943C73.0375 77.3946 75.7841 76.3068 76.7325 71.7607L90.3103 7.77701C91.7002 2.20379 88.1859 -0.324844 84.544 1.3285L4.81531 32.0715C-0.626847 34.2546 -0.594429 37.2909 3.82345 38.6435L24.2836 45.0299L71.6511 15.1463C73.8873 13.7903 75.94 14.5187 74.2556 16.014" fill="url(#paint2_radial_487_462)"/>
<defs>
<radialGradient id="paint0_radial_487_462" cx="0" cy="0" r="1" gradientUnits="userSpaceOnUse" gradientTransform="translate(53.7802 13.0472) rotate(90) scale(58.7021 49.623)">
<stop stop-color="#9E8EFF"/>
<stop offset="1" stop-color="#2C0DEE"/>
</radialGradient>
<radialGradient id="paint1_radial_487_462" cx="0" cy="0" r="1" gradientUnits="userSpaceOnUse" gradientTransform="translate(42.0544 52.8462) rotate(90) scale(18.9039 12.4057)">
<stop stop-color="#9E8EFF"/>
<stop offset="1" stop-color="#2C0DEE"/>
</radialGradient>
<radialGradient id="paint2_radial_487_462" cx="0" cy="0" r="1" gradientUnits="userSpaceOnUse" gradientTransform="translate(45.617 8.69166) rotate(90) scale(67.6309 73.5845)">
<stop stop-color="#9E8EFF"/>
<stop offset="1" stop-color="#2C0DEE"/>
</radialGradient>
</defs>
</svg>
