<svg width="86" height="71" viewBox="0 0 86 71" fill="none" xmlns="http://www.w3.org/2000/svg">
<path d="M85.5892 1.02607C81.8974 3.63021 77.8098 5.62195 73.4838 6.92461C71.1619 4.25489 68.0761 2.36266 64.6438 1.50384C61.2115 0.64502 57.5982 0.86105 54.2926 2.12271C50.9871 3.38437 48.1487 5.63079 46.1615 8.55814C44.1743 11.4855 43.134 14.9525 43.1815 18.4904V22.3456C36.4064 22.5213 29.693 21.0187 23.6392 17.9716C17.5855 14.9246 12.3792 10.4276 8.48419 4.88132C8.48419 4.88132 -6.93682 39.5786 27.7605 54.9996C19.8207 60.3891 10.3623 63.0915 0.773682 62.7101C35.471 81.9864 77.8787 62.7101 77.8787 18.3747C77.8752 17.3008 77.7719 16.2296 77.5703 15.1749C81.505 11.2945 84.2817 6.39533 85.5892 1.02607Z" fill="url(#paint0_radial_464_436)"/>
<defs>
<radialGradient id="paint0_radial_464_436" cx="0" cy="0" r="1" gradientUnits="userSpaceOnUse" gradientTransform="translate(43.1815 8.19206) rotate(90) scale(61.9727 69.3396)">
<stop stop-color="#9E8EFF"/>
<stop offset="1" stop-color="#2C0DEE"/>
</radialGradient>
</defs>
</svg>
