<svg width="247" height="103" viewBox="0 0 247 103" fill="none" xmlns="http://www.w3.org/2000/svg">
<path d="M131.471 89.9413C129.215 89.9413 127.374 89.1445 125.946 87.5509C124.518 85.9574 123.804 83.8982 123.804 81.3733C123.804 78.8899 124.528 76.8514 125.977 75.2578C127.425 73.6436 129.257 72.8364 131.471 72.8364C133.499 72.8364 135.196 73.4677 136.562 74.7301C137.949 75.9925 138.787 77.6895 139.077 79.8212H135.786C135.621 78.5173 135.155 77.4929 134.389 76.7479C133.624 75.9822 132.661 75.5993 131.502 75.5993C130.157 75.5993 129.071 76.127 128.243 77.1825C127.436 78.238 127.032 79.6349 127.032 81.3733C127.032 83.1324 127.436 84.5397 128.243 85.5952C129.071 86.63 130.157 87.1474 131.502 87.1474C132.661 87.1474 133.624 86.7748 134.389 86.0298C135.155 85.2848 135.631 84.25 135.817 82.9255H139.077C138.808 85.0985 137.99 86.8162 136.624 88.0787C135.259 89.3204 133.541 89.9413 131.471 89.9413ZM151.732 89.5998V87.0542C150.677 88.9582 148.917 89.9102 146.455 89.9102C144.737 89.9102 143.361 89.4653 142.326 88.5754C141.312 87.6647 140.805 86.4541 140.805 84.9433C140.805 81.6734 143.299 80.0385 148.286 80.0385C149.259 80.0385 150.283 80.1006 151.36 80.2247V79.014C151.36 77.8344 151.059 76.9238 150.459 76.2822C149.859 75.6407 149.011 75.3199 147.914 75.3199C146.775 75.3199 145.865 75.6407 145.182 76.2822C144.52 76.9238 144.168 77.824 144.126 78.983H141.27C141.353 77.1411 141.995 75.6614 143.195 74.5438C144.416 73.4056 145.989 72.8364 147.914 72.8364C149.942 72.8364 151.515 73.3849 152.632 74.4817C153.771 75.5579 154.34 77.079 154.34 79.0451V89.5998H151.732ZM143.785 84.8502C143.785 85.6987 144.075 86.3816 144.654 86.899C145.254 87.4164 146.061 87.6751 147.076 87.6751C148.379 87.6751 149.414 87.3026 150.18 86.5575C150.966 85.7918 151.36 84.7777 151.36 83.5153V82.1804C150.387 82.0563 149.424 81.9942 148.472 81.9942C145.347 81.9942 143.785 82.9462 143.785 84.8502ZM171.756 75.2268C173.101 76.8203 173.774 78.8692 173.774 81.3733C173.774 83.8775 173.101 85.9263 171.756 87.5199C170.432 89.1134 168.683 89.9102 166.51 89.9102C164.192 89.9102 162.422 88.8754 161.201 86.8059V95.5911H158.066V73.1469H160.984V76.1581C161.564 75.1026 162.34 74.2851 163.312 73.7056C164.285 73.1262 165.351 72.8364 166.51 72.8364C168.683 72.8364 170.432 73.6332 171.756 75.2268ZM169.211 85.5952C170.08 84.5811 170.514 83.1738 170.514 81.3733C170.514 79.5728 170.08 78.1655 169.211 77.1514C168.362 76.1167 167.245 75.5993 165.858 75.5993C164.513 75.5993 163.395 76.1167 162.505 77.1514C161.636 78.1655 161.201 79.5728 161.201 81.3733C161.201 83.1531 161.636 84.5604 162.505 85.5952C163.374 86.6093 164.492 87.1163 165.858 87.1163C167.245 87.1163 168.362 86.6093 169.211 85.5952ZM179.653 67.8385C180.088 68.2317 180.305 68.7284 180.305 69.3286C180.305 69.9287 180.088 70.4254 179.653 70.8186C179.24 71.2118 178.701 71.4085 178.039 71.4085C177.377 71.4085 176.829 71.2118 176.394 70.8186C175.959 70.4254 175.742 69.9287 175.742 69.3286C175.742 68.7284 175.959 68.2317 176.394 67.8385C176.829 67.4453 177.377 67.2487 178.039 67.2487C178.701 67.2487 179.24 67.4453 179.653 67.8385ZM179.622 89.5998H176.487V73.1469H179.622V89.5998ZM192.791 86.5575V89.3204C191.922 89.7136 190.991 89.9102 189.997 89.9102C188.404 89.9102 187.141 89.4756 186.21 88.6064C185.3 87.7165 184.844 86.392 184.844 84.6329V75.8166H181.212V73.1469H184.844V68.2731H187.98V73.1469H192.947V75.8166H187.98V83.9189C187.98 85.9677 188.901 86.9921 190.742 86.9921C191.508 86.9921 192.191 86.8473 192.791 86.5575ZM205.438 89.5998V87.0542C204.383 88.9582 202.623 89.9102 200.161 89.9102C198.443 89.9102 197.067 89.4653 196.032 88.5754C195.018 87.6647 194.511 86.4541 194.511 84.9433C194.511 81.6734 197.005 80.0385 201.992 80.0385C202.965 80.0385 203.989 80.1006 205.065 80.2247V79.014C205.065 77.8344 204.765 76.9238 204.165 76.2822C203.565 75.6407 202.717 75.3199 201.62 75.3199C200.481 75.3199 199.571 75.6407 198.888 76.2822C198.226 76.9238 197.874 77.824 197.832 78.983H194.976C195.059 77.1411 195.701 75.6614 196.901 74.5438C198.122 73.4056 199.695 72.8364 201.62 72.8364C203.648 72.8364 205.221 73.3849 206.338 74.4817C207.477 75.5579 208.046 77.079 208.046 79.0451V89.5998H205.438ZM197.491 84.8502C197.491 85.6987 197.781 86.3816 198.36 86.899C198.96 87.4164 199.767 87.6751 200.782 87.6751C202.085 87.6751 203.12 87.3026 203.886 86.5575C204.672 85.7918 205.065 84.7777 205.065 83.5153V82.1804C204.093 82.0563 203.13 81.9942 202.178 81.9942C199.053 81.9942 197.491 82.9462 197.491 84.8502ZM214.938 89.5998H211.772V67.3107H214.938V89.5998Z" fill="black"/>
<path d="M139.3 40.1839C139.3 43.2927 137.163 44.6687 135.432 44.6687C132.989 44.6687 131.513 43.1908 131.513 40.1839V24.5379H122.81V41.8148C122.81 49.0517 126.933 52.4663 132.379 52.4663C135.585 52.4663 138.486 51.0393 140.013 49.0007V51.9566H148.003V24.5379H139.3V40.1839Z" fill="#0A0913"/>
<path d="M192.57 51.9566V24.5379H183.867V51.9566H192.57Z" fill="#0A0913"/>
<path d="M162.07 37.5339C162.07 33.4058 164.004 31.8769 166.141 31.8769C168.788 31.8769 170.009 33.7626 170.009 37.2282V51.9568H178.712V34.3232C178.712 27.6469 174.895 24.0284 169.5 24.0284C166.039 24.0284 163.495 25.4554 161.357 27.8508V24.5381H153.366V51.9568H162.07V37.5339Z" fill="#0A0913"/>
<path d="M240.791 24.5379H232.037L226.744 41.509L220.84 24.5379H211.373L222.061 51.6508L218.244 61.7927H227.761L240.791 24.5379Z" fill="#0A0913"/>
<path d="M211.332 44.3629C212.757 44.3629 214.132 44.0061 215.099 43.3946V50.9882C213.165 52.0585 211.332 52.4662 208.889 52.4662C202.731 52.4662 199.117 48.7968 199.117 42.5282V32.1315H196.539V24.5378H199.117V16.4855H207.821V24.5378H218.431V32.1315H207.821V40.4896C207.821 43.1398 208.94 44.3629 211.332 44.3629Z" fill="#0A0913"/>
<path d="M188.142 11.5167C191.084 11.5167 193.121 13.6063 193.121 16.5112C193.121 19.3652 191.084 21.4547 188.142 21.4547C185.201 21.4547 183.164 19.3652 183.164 16.5112C183.164 13.6063 185.201 11.5167 188.142 11.5167Z" fill="#4021FF"/>
<path d="M241.236 42.0182C244.178 42.0182 246.214 44.1077 246.214 47.0127C246.214 49.8667 244.178 51.9562 241.236 51.9562C238.295 51.9562 236.258 49.8667 236.258 47.0127C236.258 44.1077 238.295 42.0182 241.236 42.0182Z" fill="#4021FF"/>
<path d="M229.949 55.5151C229.949 61.5063 234.096 61.7831 235.066 61.793H235.225C235.191 61.793 235.137 61.7937 235.066 61.793H227.762L229.949 55.5151Z" fill="#0A0913"/>
<path d="M178.712 48.1358C178.712 51.7818 182.391 51.9503 183.139 51.9563H183.254C183.233 51.9563 183.194 51.9567 183.139 51.9563H178.712V48.1358Z" fill="#0A0913"/>
<path d="M192.57 48.1358C192.57 51.7818 196.249 51.9503 196.997 51.9563H197.112C197.091 51.9563 197.052 51.9567 196.997 51.9563H192.57V48.1358Z" fill="#0A0913"/>
<path d="M148.003 48.1358C148.003 51.7818 151.682 51.9503 152.43 51.9563H152.545C152.524 51.9563 152.485 51.9567 152.43 51.9563H148.003V48.1358Z" fill="#0A0913"/>
<ellipse cx="51.1877" cy="51.6448" rx="50.9735" ry="51" fill="url(#paint0_radial_195_92)"/>
<mask id="mask0_195_92" style="mask-type:alpha" maskUnits="userSpaceOnUse" x="0" y="0" width="103" height="103">
<ellipse cx="51.1877" cy="51.6448" rx="50.9735" ry="51" fill="#4021FF"/>
</mask>
<g mask="url(#mask0_195_92)">
<path d="M53.0753 22.4465L82.6477 47.981C82.6477 47.981 82.6477 57.7905 82.6477 66.7447C82.6477 75.6989 85.7561 82.0562 92.7491 82.0562C99.742 82.0562 82.6477 116.66 82.6477 116.66H53.0753V22.4465Z" fill="url(#paint1_linear_195_92)"/>
<path d="M53.0753 22.4465L41.402 45.0266V116.66H53.0753V22.4465Z" fill="url(#paint2_linear_195_92)"/>
<path d="M29.1242 38.7977L53.0754 59.4786V115.103H29.1242V38.7977Z" fill="url(#paint3_linear_195_92)"/>
<path d="M29.1242 38.7977L19.6698 57.0858C19.6698 57.0858 19.6698 62.0723 19.6698 69.9566C19.6698 77.841 11.2027 80.0634 8.2697 80.0634C5.33666 80.0634 19.6698 115.103 19.6698 115.103H29.1242V38.7977Z" fill="url(#paint4_linear_195_92)"/>
</g>
<defs>
<radialGradient id="paint0_radial_195_92" cx="0" cy="0" r="1" gradientUnits="userSpaceOnUse" gradientTransform="translate(51.1877 14.675) rotate(90) scale(87.9698 87.9241)">
<stop stop-color="#7B67F5"/>
<stop offset="1" stop-color="#2C0DEE"/>
</radialGradient>
<linearGradient id="paint1_linear_195_92" x1="67.8615" y1="26.6153" x2="67.8615" y2="116.66" gradientUnits="userSpaceOnUse">
<stop stop-color="white"/>
<stop offset="0.253309" stop-color="#F0EEFF" stop-opacity="0.921473"/>
<stop offset="0.473389" stop-color="#D5CEFF" stop-opacity="0.780278"/>
<stop offset="1" stop-color="#4021FF" stop-opacity="0"/>
</linearGradient>
<linearGradient id="paint2_linear_195_92" x1="56.1882" y1="0.644947" x2="29.3354" y2="76.6735" gradientUnits="userSpaceOnUse">
<stop stop-color="white"/>
<stop offset="0.253309" stop-color="#F0EEFF" stop-opacity="0.921473"/>
<stop offset="0.473389" stop-color="#D5CEFF" stop-opacity="0.780278"/>
<stop offset="1" stop-color="#4021FF" stop-opacity="0"/>
</linearGradient>
<linearGradient id="paint3_linear_195_92" x1="41.0998" y1="42.9428" x2="41.0998" y2="115.103" gradientUnits="userSpaceOnUse">
<stop stop-color="white"/>
<stop offset="0.253309" stop-color="#F0EEFF" stop-opacity="0.921473"/>
<stop offset="0.473389" stop-color="#D5CEFF" stop-opacity="0.780278"/>
<stop offset="1" stop-color="#4021FF" stop-opacity="0"/>
</linearGradient>
<linearGradient id="paint4_linear_195_92" x1="31.6454" y1="21.1403" x2="7.98901" y2="97.2297" gradientUnits="userSpaceOnUse">
<stop stop-color="white"/>
<stop offset="0.253309" stop-color="#F0EEFF" stop-opacity="0.921473"/>
<stop offset="0.473389" stop-color="#D5CEFF" stop-opacity="0.780278"/>
<stop offset="1" stop-color="#4021FF" stop-opacity="0"/>
</linearGradient>
</defs>
</svg>
