<svg width="371" height="152" viewBox="0 0 371 152" fill="none" xmlns="http://www.w3.org/2000/svg">
<path d="M50.1539 86.9284C50.1539 96.2549 43.7411 100.383 38.5498 100.383C31.2208 100.383 26.7929 95.9491 26.7929 86.9284V39.9905H0.683594V91.821C0.683594 113.532 13.0512 123.775 29.3886 123.775C39.0078 123.775 47.7109 119.495 52.2915 113.379V122.247H76.2633V39.9905H50.1539V86.9284Z" fill="#0A0913"/>
<path d="M209.965 122.247V39.9905H183.855V122.247H209.965Z" fill="#0A0913"/>
<path d="M118.461 78.9786C118.461 66.5943 124.263 62.0075 130.676 62.0075C138.615 62.0075 142.28 67.6645 142.28 78.0612V122.247H168.389V69.3464C168.389 49.3175 156.938 38.4621 140.753 38.4621C130.37 38.4621 122.736 42.7431 116.323 49.929V39.991H92.3516V122.247H118.461V78.9786Z" fill="#0A0913"/>
<path d="M354.626 39.9905H328.364L312.484 90.9036L294.773 39.9905H266.373L298.437 121.329L286.986 151.755H315.538L354.626 39.9905Z" fill="#0A0913"/>
<path d="M266.25 99.4653C270.525 99.4653 274.648 98.3951 277.549 96.5604V119.341C271.747 122.552 266.25 123.775 258.921 123.775C240.446 123.775 229.605 112.767 229.605 93.9612V62.7711H221.871V39.9902H229.605V15.8332H255.715V39.9902H287.547V62.7711H255.715V87.8455C255.715 95.7959 259.074 99.4653 266.25 99.4653Z" fill="#0A0913"/>
<path d="M196.68 0.926758C205.505 0.926758 211.614 7.19535 211.614 15.9102C211.614 24.4722 205.505 30.7408 196.68 30.7408C187.856 30.7408 181.746 24.4722 181.746 15.9102C181.746 7.19535 187.856 0.926758 196.68 0.926758Z" fill="#4021FF"/>
<path d="M355.961 92.4313C364.786 92.4313 370.896 98.6999 370.896 107.415C370.896 115.977 364.786 122.245 355.961 122.245C347.137 122.245 341.027 115.977 341.027 107.415C341.027 98.6999 347.137 92.4313 355.961 92.4313Z" fill="#4021FF"/>
<path d="M322.1 132.922C322.1 150.896 334.542 151.726 337.451 151.756H337.929C337.827 151.756 337.665 151.758 337.451 151.756H315.541L322.1 132.922Z" fill="#0A0913"/>
<path d="M168.391 110.784C168.391 121.722 179.426 122.228 181.671 122.246H182.015C181.953 122.246 181.836 122.247 181.671 122.246H168.391V110.784Z" fill="#0A0913"/>
<path d="M209.965 110.784C209.965 121.722 221.001 122.228 223.245 122.246H223.59C223.527 122.246 223.41 122.247 223.245 122.246H209.965V110.784Z" fill="#0A0913"/>
<path d="M76.2617 110.784C76.2617 121.722 87.2975 122.228 89.542 122.246H89.8864C89.8243 122.246 89.7068 122.247 89.542 122.246H76.2617V110.784Z" fill="#0A0913"/>
</svg>
